<?xml version="1.0" encoding="iso-8859-1"?>
<!-- Generator: Adobe Illustrator 19.0.0, SVG Export Plug-In . SVG Version: 6.00 Build 0)  -->
<svg version="1.1" id="Capa_1" xmlns="http://www.w3.org/2000/svg" xmlns:xlink="http://www.w3.org/1999/xlink" x="0px" y="0px"
	 viewBox="0 0 512 512" style="enable-background:new 0 0 512 512;" xml:space="preserve">
<rect x="118.039" y="85.999" style="fill:#72D8FF;" width="56" height="361.998"/>
<ellipse style="fill:#C9F3FF;" cx="144.909" cy="48" rx="37.613" ry="38"/>
<polygon style="fill:#FFC66C;" points="228.038,502 64.039,502 84.098,448 207.979,448 "/>
<polygon style="fill:#FF5D5D;" points="297.058,351.034 501.997,351.034 449.607,262.548 501.997,174.062 297.058,174.062 "/>
<rect x="174.219" y="85" style="fill:#FE8F8D;" width="207.999" height="175.999"/>
<polygon style="fill:#EF3C3C;" points="297.058,351.034 297.058,261.001 381.998,261.001 "/>
<path d="M461.229,262.548l49.373-83.392c1.83-3.091,1.862-6.926,0.083-10.047c-1.779-3.121-5.096-5.047-8.688-5.047H394.531
	c-0.796,0-1.567,0.103-2.31,0.279v-79.34c0-5.523-4.478-10-10-10H184.245c5.216-7.699,8.273-16.997,8.273-27.003
	c0-26.467-21.359-48-47.613-48S97.291,21.533,97.291,48c0,12.461,4.737,23.825,12.487,32.366c-1.097,1.605-1.74,3.544-1.74,5.634
	v57.247c0,5.523,4.478,10,10,10c5.522,0,10-4.477,10-10V95.999h36V438h-36V247.867c0-5.523-4.478-10-10-10c-5.522,0-10,4.477-10,10
	V438h-23.94c-4.18,0-7.919,2.6-9.374,6.518L57.086,492H10.003c-5.522,0-10,4.477-10,10s4.478,10,10,10h276.984
	c5.522,0,10-4.477,10-10s-4.478-10-10-10H234.99l-17.639-47.482c-1.455-3.918-5.194-6.518-9.374-6.518h-23.94V271.001h103.019
	v80.033c0,4.098,2.5,7.781,6.308,9.293c1.199,0.476,2.45,0.707,3.69,0.707c0.003,0,0.006,0,0.006,0h204.936
	c3.592,0,6.908-1.927,8.688-5.047c1.779-3.121,1.747-6.956-0.083-10.047L461.229,262.548z M213.655,492H78.421l12.63-34h109.974
	L213.655,492z M144.904,20c15.226,0,27.613,12.561,27.613,28s-12.388,28-27.613,28c-15.225,0-27.613-12.561-27.613-28
	S129.679,20,144.904,20z M184.223,151.002h63.423c5.522,0,10-4.477,10-10s-4.478-10-10-10h-63.423v-36h187.999v155.999h-75.164
	H184.223V151.002z M358.815,271.001l-51.758,54.861v-54.861H358.815z M320.24,341.034l67.946-72.02
	c2.445-1.823,4.036-4.729,4.036-8.013v-77.219c0.743,0.176,1.513,0.279,2.31,0.279h89.924l-43.452,73.392
	c-1.86,3.142-1.86,7.048,0,10.189l43.452,73.392H320.24z"/>
<path d="M125.111,199.782c1.86-1.86,2.92-4.44,2.92-7.07s-1.06-5.21-2.92-7.07c-1.869-1.86-4.439-2.93-7.069-2.93
	c-2.641,0-5.21,1.07-7.08,2.93c-1.86,1.86-2.92,4.44-2.92,7.07s1.06,5.21,2.92,7.07c1.87,1.86,4.439,2.93,7.08,2.93
	C120.672,202.712,123.252,201.642,125.111,199.782z"/>
<path d="M328.491,492c-2.631,0-5.211,1.07-7.07,2.93c-1.86,1.86-2.93,4.44-2.93,7.07c0,2.63,1.069,5.21,2.93,7.07
	c1.859,1.86,4.439,2.93,7.07,2.93c2.63,0,5.21-1.07,7.069-2.93c1.86-1.86,2.931-4.44,2.931-7.07c0-2.63-1.07-5.21-2.931-7.07
	C333.701,493.07,331.121,492,328.491,492z"/>
<path d="M286.251,131.002c-2.63,0-5.21,1.07-7.061,2.93c-1.87,1.86-2.939,4.44-2.939,7.07s1.069,5.21,2.939,7.07
	c1.851,1.86,4.431,2.93,7.061,2.93c2.64,0,5.21-1.07,7.08-2.93c1.859-1.86,2.93-4.44,2.93-7.07s-1.07-5.21-2.93-7.07
	C291.461,132.072,288.891,131.002,286.251,131.002z"/>
<g>
</g>
<g>
</g>
<g>
</g>
<g>
</g>
<g>
</g>
<g>
</g>
<g>
</g>
<g>
</g>
<g>
</g>
<g>
</g>
<g>
</g>
<g>
</g>
<g>
</g>
<g>
</g>
<g>
</g>
</svg>
